<svg xmlns="http://www.w3.org/2000/svg" xmlns:xlink="http://www.w3.org/1999/xlink" width="250" zoomAndPan="magnify" viewBox="0 0 187.5 60" height="80" preserveAspectRatio="xMidYMid meet" version="1.0"><defs><clipPath id="3dff763988"><path d="M 52.304688 0.835938 L 134.625 0.835938 L 134.625 59.917969 L 52.304688 59.917969 Z M 52.304688 0.835938 " clip-rule="nonzero"/></clipPath><clipPath id="575b138efe"><path d="M 52.476562 0.984375 C 52.355469 1.292969 52.625 1.433594 53.363281 1.433594 C 53.871094 1.433594 54.191406 1.492188 54.5 1.640625 L 54.929688 1.851562 L 54.929688 28.53125 C 54.929688 53.742188 54.917969 55.238281 54.75 55.558594 C 54.5 56.050781 54.03125 56.269531 53.203125 56.269531 C 52.664062 56.269531 52.515625 56.296875 52.464844 56.429688 C 52.316406 56.816406 52.652344 56.867188 55.226562 56.867188 C 57.796875 56.867188 58.136719 56.816406 57.988281 56.429688 C 57.9375 56.296875 57.789062 56.269531 57.269531 56.269531 C 56.460938 56.269531 55.984375 56.078125 55.726562 55.648438 C 55.527344 55.320312 55.527344 55.222656 55.527344 28.949219 C 55.527344 13.847656 55.566406 2.628906 55.617188 2.679688 C 55.667969 2.738281 60.621094 13.207031 66.644531 25.949219 L 77.578125 49.121094 L 76.511719 51.375 C 74.886719 54.785156 74.839844 54.933594 74.886719 56.019531 C 74.917969 56.765625 74.976562 57.027344 75.226562 57.5625 C 75.996094 59.191406 77.898438 60.1875 79.574219 59.859375 C 81.429688 59.5 82.714844 58.164062 82.972656 56.328125 C 83.0625 55.730469 83.054688 55.480469 82.914062 54.941406 C 82.824219 54.574219 82.007812 52.707031 81.011719 50.59375 L 79.265625 46.90625 L 89.65625 24.910156 L 100.042969 2.929688 L 100.074219 29.101562 C 100.09375 52.378906 100.074219 55.3125 99.941406 55.570312 C 99.691406 56.039062 99.363281 56.199219 98.476562 56.25 C 97.890625 56.277344 97.671875 56.335938 97.628906 56.449219 C 97.460938 56.886719 97.300781 56.875 109.015625 56.835938 C 119.742188 56.796875 120.113281 56.785156 121.179688 56.585938 C 125.636719 55.738281 129.394531 53.277344 131.855469 49.585938 C 135.046875 44.78125 135.445312 38.660156 132.90625 33.515625 C 130.742188 29.167969 126.664062 25.945312 121.988281 24.910156 L 121.199219 24.730469 L 122.195312 24.410156 C 122.746094 24.230469 123.433594 23.960938 123.730469 23.8125 C 125.347656 22.996094 127.023438 21.601562 128.117188 20.15625 C 128.835938 19.1875 129.703125 17.441406 130.042969 16.277344 C 131.828125 10.023438 128.367188 3.515625 122.148438 1.429688 C 120.351562 0.835938 120.433594 0.835938 108.558594 0.835938 C 98.636719 0.835938 97.71875 0.84375 97.660156 0.992188 C 97.539062 1.3125 97.789062 1.433594 98.558594 1.433594 C 99.226562 1.433594 99.3125 1.464844 99.585938 1.699219 L 99.875 1.980469 L 89.445312 24.035156 C 83.703125 36.167969 78.984375 46.097656 78.945312 46.097656 C 78.914062 46.097656 74.230469 36.238281 68.539062 24.183594 C 62.84375 12.140625 58.027344 1.949219 57.828125 1.550781 L 57.480469 0.835938 L 54.996094 0.835938 C 52.882812 0.835938 52.523438 0.855469 52.476562 0.984375 Z M 120.082031 1.632812 C 122.445312 2.238281 124.371094 3.855469 125.746094 6.417969 C 127.539062 9.738281 127.808594 14.15625 126.464844 17.882812 C 125.457031 20.664062 123.441406 22.949219 121.148438 23.90625 C 120.023438 24.382812 119.34375 24.464844 116.632812 24.464844 C 113.851562 24.464844 112.65625 24.5625 111.308594 24.914062 C 107.710938 25.851562 104.539062 28.550781 103.074219 31.933594 L 102.792969 32.589844 L 102.785156 17.394531 L 102.785156 2.210938 L 103.5625 1.433594 L 111.429688 1.433594 C 118.976562 1.433594 119.335938 1.441406 120.082031 1.632812 Z M 119.894531 25.171875 C 123.542969 25.679688 126.8125 28.011719 129.003906 31.683594 C 131.488281 35.828125 132.066406 41.472656 130.5 46.316406 C 130.082031 47.585938 129.054688 49.648438 128.296875 50.734375 C 126.132812 53.796875 122.945312 55.78125 119.574219 56.167969 C 118.089844 56.339844 103.714844 56.269531 103.402344 56.089844 C 103.273438 56.019531 103.085938 55.8125 102.984375 55.640625 C 102.792969 55.332031 102.785156 55.042969 102.785156 45.023438 C 102.785156 33.535156 102.746094 34.3125 103.492188 32.449219 C 104.589844 29.75 106.992188 27.265625 109.613281 26.128906 C 110.859375 25.589844 111.617188 25.371094 113.152344 25.132812 C 113.71875 25.042969 119.183594 25.074219 119.894531 25.171875 Z M 79.542969 53.246094 C 80.992188 56.335938 81.050781 56.476562 81.050781 57.085938 C 81.039062 58.800781 79.703125 59.71875 77.957031 59.199219 C 76.613281 58.800781 75.675781 57.734375 75.457031 56.335938 C 75.316406 55.5 75.457031 54.972656 76.234375 53.328125 C 76.59375 52.558594 77.113281 51.460938 77.378906 50.894531 C 77.648438 50.316406 77.898438 49.898438 77.949219 49.945312 C 77.988281 49.996094 78.707031 51.484375 79.542969 53.246094 Z M 79.542969 53.246094 " clip-rule="nonzero"/></clipPath><clipPath id="c39a1dc8f1"><path d="M 0.421875 0.835938 L 82.625 0.835938 L 82.625 59.917969 L 0.421875 59.917969 Z M 0.421875 0.835938 " clip-rule="nonzero"/></clipPath><clipPath id="570888dc78"><path d="M 0.476562 0.984375 C 0.355469 1.292969 0.625 1.433594 1.363281 1.433594 C 1.871094 1.433594 2.191406 1.492188 2.5 1.640625 L 2.929688 1.851562 L 2.929688 28.53125 C 2.929688 53.742188 2.917969 55.238281 2.75 55.558594 C 2.5 56.050781 2.03125 56.269531 1.203125 56.269531 C 0.664062 56.269531 0.515625 56.296875 0.464844 56.429688 C 0.316406 56.816406 0.652344 56.867188 3.226562 56.867188 C 5.796875 56.867188 6.136719 56.816406 5.988281 56.429688 C 5.9375 56.296875 5.789062 56.269531 5.269531 56.269531 C 4.460938 56.269531 3.984375 56.078125 3.726562 55.648438 C 3.527344 55.320312 3.527344 55.222656 3.527344 28.949219 C 3.527344 13.847656 3.566406 2.628906 3.617188 2.679688 C 3.667969 2.738281 8.621094 13.207031 14.644531 25.949219 L 25.578125 49.121094 L 24.511719 51.375 C 22.886719 54.785156 22.839844 54.933594 22.886719 56.019531 C 22.917969 56.765625 22.976562 57.027344 23.226562 57.5625 C 23.996094 59.191406 25.898438 60.1875 27.574219 59.859375 C 29.429688 59.5 30.714844 58.164062 30.972656 56.328125 C 31.0625 55.730469 31.054688 55.480469 30.914062 54.941406 C 30.824219 54.574219 30.007812 52.707031 29.011719 50.59375 L 27.265625 46.90625 L 37.65625 24.910156 L 48.042969 2.929688 L 48.074219 29.101562 C 48.09375 52.378906 48.074219 55.3125 47.941406 55.570312 C 47.691406 56.039062 47.363281 56.199219 46.476562 56.25 C 45.890625 56.277344 45.671875 56.335938 45.628906 56.449219 C 45.460938 56.886719 45.300781 56.875 57.015625 56.835938 C 67.742188 56.796875 68.113281 56.785156 69.179688 56.585938 C 73.636719 55.738281 77.394531 53.277344 79.855469 49.585938 C 83.046875 44.78125 83.445312 38.660156 80.90625 33.515625 C 78.742188 29.167969 74.664062 25.945312 69.988281 24.910156 L 69.199219 24.730469 L 70.195312 24.410156 C 70.746094 24.230469 71.433594 23.960938 71.730469 23.8125 C 73.347656 22.996094 75.023438 21.601562 76.117188 20.15625 C 76.835938 19.1875 77.703125 17.441406 78.042969 16.277344 C 79.828125 10.023438 76.367188 3.515625 70.148438 1.429688 C 68.351562 0.835938 68.433594 0.835938 56.558594 0.835938 C 46.636719 0.835938 45.71875 0.84375 45.660156 0.992188 C 45.539062 1.3125 45.789062 1.433594 46.558594 1.433594 C 47.226562 1.433594 47.3125 1.464844 47.585938 1.699219 L 47.875 1.980469 L 37.445312 24.035156 C 31.703125 36.167969 26.984375 46.097656 26.945312 46.097656 C 26.914062 46.097656 22.230469 36.238281 16.539062 24.183594 C 10.84375 12.140625 6.027344 1.949219 5.828125 1.550781 L 5.480469 0.835938 L 2.996094 0.835938 C 0.882812 0.835938 0.523438 0.855469 0.476562 0.984375 Z M 68.082031 1.632812 C 70.445312 2.238281 72.371094 3.855469 73.746094 6.417969 C 75.539062 9.738281 75.808594 14.15625 74.464844 17.882812 C 73.457031 20.664062 71.441406 22.949219 69.148438 23.90625 C 68.023438 24.382812 67.34375 24.464844 64.632812 24.464844 C 61.851562 24.464844 60.65625 24.5625 59.308594 24.914062 C 55.710938 25.851562 52.539062 28.550781 51.074219 31.933594 L 50.792969 32.589844 L 50.785156 17.394531 L 50.785156 2.210938 L 51.5625 1.433594 L 59.429688 1.433594 C 66.976562 1.433594 67.335938 1.441406 68.082031 1.632812 Z M 67.894531 25.171875 C 71.542969 25.679688 74.8125 28.011719 77.003906 31.683594 C 79.488281 35.828125 80.066406 41.472656 78.5 46.316406 C 78.082031 47.585938 77.054688 49.648438 76.296875 50.734375 C 74.132812 53.796875 70.945312 55.78125 67.574219 56.167969 C 66.089844 56.339844 51.714844 56.269531 51.402344 56.089844 C 51.273438 56.019531 51.085938 55.8125 50.984375 55.640625 C 50.792969 55.332031 50.785156 55.042969 50.785156 45.023438 C 50.785156 33.535156 50.746094 34.3125 51.492188 32.449219 C 52.589844 29.75 54.992188 27.265625 57.613281 26.128906 C 58.859375 25.589844 59.617188 25.371094 61.152344 25.132812 C 61.71875 25.042969 67.183594 25.074219 67.894531 25.171875 Z M 27.542969 53.246094 C 28.992188 56.335938 29.050781 56.476562 29.050781 57.085938 C 29.039062 58.800781 27.703125 59.71875 25.957031 59.199219 C 24.613281 58.800781 23.675781 57.734375 23.457031 56.335938 C 23.316406 55.5 23.457031 54.972656 24.234375 53.328125 C 24.59375 52.558594 25.113281 51.460938 25.378906 50.894531 C 25.648438 50.316406 25.898438 49.898438 25.949219 49.945312 C 25.988281 49.996094 26.707031 51.484375 27.542969 53.246094 Z M 27.542969 53.246094 " clip-rule="nonzero"/></clipPath><clipPath id="3a5300c12e"><rect x="0" width="83" y="0" height="60"/></clipPath></defs><g clip-path="url(#3dff763988)"><g clip-path="url(#575b138efe)"><g transform="matrix(1, 0, 0, 1, 52, -0.000000000000004996)"><g clip-path="url(#3a5300c12e)"><g clip-path="url(#c39a1dc8f1)"><g clip-path="url(#570888dc78)"><path fill="#ffffff" d="M 0.4375 0.835938 L 82.625 0.835938 L 82.625 59.921875 L 0.4375 59.921875 Z M 0.4375 0.835938 " fill-opacity="1" fill-rule="nonzero"/></g></g></g></g></g></g></svg>